<svg width="271" height="312" viewBox="0 0 271 312" fill="none" xmlns="http://www.w3.org/2000/svg">
<path d="M80.5 25C98.1 24.6 101.167 9.5 100.5 2H168C168.4 18 181.833 24 188.5 25C255.7 25 269.833 78 268.5 104.5V151H210.5V310.5H59.5V151H2V104.5C4.5 33.5 58.5 25.5 80.5 25Z" fill="#FE1212"/>
<path fill-rule="evenodd" clip-rule="evenodd" d="M80.5 25C98.1 24.6 101.167 9.5 100.5 2H168C168.098 5.90947 168.974 9.22191 170.339 12.0103C165.905 15.0782 163 20.1999 163 26C163 35.3888 170.611 43 180 43C189.389 43 197 35.3888 197 26C197 25.764 196.995 25.529 196.986 25.2953C207.243 26.0269 216.121 28.0864 223.786 31.1249C225.96 38.0091 232.397 43 240 43C241.081 43 242.138 42.8992 243.163 42.7064C250.556 49.0295 255.996 56.5301 259.901 64.3232C255.715 67.4197 253 72.3928 253 78C253 86.8254 259.725 94.0801 268.33 94.919C268.606 98.362 268.646 101.591 268.5 104.5V151H210.5V165.007C210.334 165.002 210.167 165 210 165C200.611 165 193 172.611 193 182C193 191.389 200.611 199 210 199C210.167 199 210.334 198.998 210.5 198.993V269.007C210.334 269.002 210.167 269 210 269C200.611 269 193 276.611 193 286C193 295.389 200.611 303 210 303C210.09 303 210.181 302.999 210.271 302.998C210.347 302.997 210.424 302.995 210.5 302.993V310.5H59.5V250.993C59.6661 250.998 59.8328 251 60 251C69.3888 251 77 243.389 77 234C77 224.611 69.3888 217 60 217C59.8328 217 59.6661 217.002 59.5 217.007V151H2V146.884C10.4463 145.894 17 138.712 17 130C17 121.288 10.4463 114.106 2 113.116V104.5C3.50632 61.7204 23.7093 41.8124 44.3439 32.6359C46.929 38.7275 52.9656 43 60 43C69.3888 43 77 35.3888 77 26C77 25.7108 76.9928 25.4234 76.9785 25.1377C78.2251 25.0686 79.4024 25.0249 80.5 25ZM60 147C69.3888 147 77 139.389 77 130C77 120.611 69.3888 113 60 113C50.6112 113 43 120.611 43 130C43 139.389 50.6112 147 60 147ZM30 95C39.3888 95 47 87.3888 47 78C47 68.6112 39.3888 61 30 61C20.6112 61 13 68.6112 13 78C13 87.3888 20.6112 95 30 95ZM137 26C137 35.3888 129.389 43 120 43C110.611 43 103 35.3888 103 26C103 16.6112 110.611 9 120 9C129.389 9 137 16.6112 137 26ZM120 147C129.389 147 137 139.389 137 130C137 120.611 129.389 113 120 113C110.611 113 103 120.611 103 130C103 139.389 110.611 147 120 147ZM137 234C137 243.389 129.389 251 120 251C110.611 251 103 243.389 103 234C103 224.611 110.611 217 120 217C129.389 217 137 224.611 137 234ZM90 95C99.3888 95 107 87.3888 107 78C107 68.6112 99.3888 61 90 61C80.6112 61 73 68.6112 73 78C73 87.3888 80.6112 95 90 95ZM107 182C107 191.389 99.3888 199 90 199C80.6112 199 73 191.389 73 182C73 172.611 80.6112 165 90 165C99.3888 165 107 172.611 107 182ZM90 303C99.3888 303 107 295.389 107 286C107 276.611 99.3888 269 90 269C80.6112 269 73 276.611 73 286C73 295.389 80.6112 303 90 303ZM180 147C189.389 147 197 139.389 197 130C197 120.611 189.389 113 180 113C170.611 113 163 120.611 163 130C163 139.389 170.611 147 180 147ZM197 234C197 243.389 189.389 251 180 251C170.611 251 163 243.389 163 234C163 224.611 170.611 217 180 217C189.389 217 197 224.611 197 234ZM150 95C159.389 95 167 87.3888 167 78C167 68.6112 159.389 61 150 61C140.611 61 133 68.6112 133 78C133 87.3888 140.611 95 150 95ZM167 182C167 191.389 159.389 199 150 199C140.611 199 133 191.389 133 182C133 172.611 140.611 165 150 165C159.389 165 167 172.611 167 182ZM150 303C159.389 303 167 295.389 167 286C167 276.611 159.389 269 150 269C140.611 269 133 276.611 133 286C133 295.389 140.611 303 150 303ZM240 147C249.389 147 257 139.389 257 130C257 120.611 249.389 113 240 113C230.611 113 223 120.611 223 130C223 139.389 230.611 147 240 147ZM210 95C219.389 95 227 87.3888 227 78C227 68.6112 219.389 61 210 61C200.611 61 193 68.6112 193 78C193 87.3888 200.611 95 210 95Z" fill="white"/>
<path d="M80.5 25C98.1 24.6 101.167 9.5 100.5 2H168C168.4 18 181.833 24 188.5 25C255.7 25 269.833 78 268.5 104.5V151H210.5V310.5H59.5V151H2V104.5C4.5 33.5 58.5 25.5 80.5 25Z" stroke="black" stroke-width="3" stroke-linecap="round"/>
<path d="M136 2.5V153M59.5 111.5V170.5M210.5 111.5V170.5M65 40C55.5 41.8333 34.2 50.7 25 71.5M157.5 272.5H188.5M147 291H211.5" stroke="black" stroke-width="3" stroke-linecap="round"/>
</svg>
